<?xml version="1.0" encoding="utf-8" ?><svg height="297mm" viewBox="0 0 210mm 297mm" width="210mm"><rect fill="#ff0000" height="7.0mm" width="42mm" x="42mm" y="8.5mm" /><rect fill="#ff9800" height="7.0mm" width="42mm" x="42mm" y="15.5mm" /><rect fill="#ffff00" height="7.0mm" width="42mm" x="42mm" y="22.5mm" /><rect fill="#009800" height="7.0mm" width="42mm" x="42mm" y="29.5mm" /><rect fill="#0000ff" height="7.0mm" width="42mm" x="42mm" y="36.5mm" /><rect fill="#980098" height="7.0mm" width="42mm" x="42mm" y="43.5mm" /><rect fill="#60d0ff" height="8.4mm" width="42mm" x="42mm" y="54.5mm" /><rect fill="#ffb0c0" height="8.4mm" width="42mm" x="42mm" y="62.9mm" /><rect fill="#ffffff" height="8.4mm" width="42mm" x="42mm" y="71.3mm" /><rect fill="#ffb0c0" height="8.4mm" width="42mm" x="42mm" y="79.7mm" /><rect fill="#60d0ff" height="8.4mm" width="42mm" x="42mm" y="88.1mm" /><rect fill="#d70070" height="14.0mm" width="42mm" x="42mm" y="100.5mm" /><rect fill="#705096" height="14.0mm" width="42mm" x="42mm" y="114.5mm" /><rect fill="#0038a7" height="14.0mm" width="42mm" x="42mm" y="128.5mm" /><rect fill="#ff218c" height="14.0mm" width="42mm" x="42mm" y="146.5mm" /><rect fill="#ffff00" height="14.0mm" width="42mm" x="42mm" y="160.5mm" /><rect fill="#0094ff" height="14.0mm" width="42mm" x="42mm" y="174.5mm" /><rect fill="#000000" height="10.5mm" width="42mm" x="42mm" y="192.5mm" /><rect fill="#808080" height="10.5mm" width="42mm" x="42mm" y="203.0mm" /><rect fill="#ffffff" height="10.5mm" width="42mm" x="42mm" y="213.5mm" /><rect fill="#800080" height="10.5mm" width="42mm" x="42mm" y="224.0mm" /><rect fill="#ffff00" height="10.5mm" width="42mm" x="42mm" y="238.5mm" /><rect fill="#ffffff" height="10.5mm" width="42mm" x="42mm" y="249.0mm" /><rect fill="#9a59ce" height="10.5mm" width="42mm" x="42mm" y="259.5mm" /><rect fill="#2d2d2d" height="10.5mm" width="42mm" x="42mm" y="270.0mm" /><rect fill="#b580dc" height="14.0mm" width="42mm" x="126mm" y="8.5mm" /><rect fill="#ffffff" height="14.0mm" width="42mm" x="126mm" y="22.5mm" /><rect fill="#4a8020" height="14.0mm" width="42mm" x="126mm" y="36.5mm" /><rect fill="#d52e00" height="8.4mm" width="42mm" x="126mm" y="54.5mm" /><rect fill="#fe9a56" height="8.4mm" width="42mm" x="126mm" y="62.9mm" /><rect fill="#ffffff" height="8.4mm" width="42mm" x="126mm" y="71.3mm" /><rect fill="#d262a4" height="8.4mm" width="42mm" x="126mm" y="79.7mm" /><rect fill="#a30362" height="8.4mm" width="42mm" x="126mm" y="88.1mm" /><rect fill="#c479a0" height="6.0mm" width="42mm" x="126mm" y="100.5mm" /><rect fill="#eba6cb" height="6.0mm" width="42mm" x="126mm" y="106.5mm" /><rect fill="#d4c7e7" height="6.0mm" width="42mm" x="126mm" y="112.5mm" /><rect fill="#ffffff" height="6.0mm" width="42mm" x="126mm" y="118.5mm" /><rect fill="#d4c7e7" height="6.0mm" width="42mm" x="126mm" y="124.5mm" /><rect fill="#eba6cb" height="6.0mm" width="42mm" x="126mm" y="130.5mm" /><rect fill="#c479a0" height="6.0mm" width="42mm" x="126mm" y="136.5mm" /><rect fill="#808080" height="6.0mm" width="42mm" x="126mm" y="146.5mm" /><rect fill="#c0c0c0" height="6.0mm" width="42mm" x="126mm" y="152.5mm" /><rect fill="#60d0ff" height="6.0mm" width="42mm" x="126mm" y="158.5mm" /><rect fill="#ffffff" height="6.0mm" width="42mm" x="126mm" y="164.5mm" /><rect fill="#60d0ff" height="6.0mm" width="42mm" x="126mm" y="170.5mm" /><rect fill="#c0c0c0" height="6.0mm" width="42mm" x="126mm" y="176.5mm" /><rect fill="#808080" height="6.0mm" width="42mm" x="126mm" y="182.5mm" /><rect fill="#808080" height="6.0mm" width="42mm" x="126mm" y="192.5mm" /><rect fill="#c0c0c0" height="6.0mm" width="42mm" x="126mm" y="198.5mm" /><rect fill="#ffb0c0" height="6.0mm" width="42mm" x="126mm" y="204.5mm" /><rect fill="#ffffff" height="6.0mm" width="42mm" x="126mm" y="210.5mm" /><rect fill="#ffb0c0" height="6.0mm" width="42mm" x="126mm" y="216.5mm" /><rect fill="#c0c0c0" height="6.0mm" width="42mm" x="126mm" y="222.5mm" /><rect fill="#808080" height="6.0mm" width="42mm" x="126mm" y="228.5mm" /><rect fill="#808080" height="6.0mm" width="42mm" x="126mm" y="238.5mm" /><rect fill="#c0c0c0" height="6.0mm" width="42mm" x="126mm" y="244.5mm" /><rect fill="#97d7e7" height="6.0mm" width="42mm" x="126mm" y="250.5mm" /><rect fill="#ffffff" height="6.0mm" width="42mm" x="126mm" y="256.5mm" /><rect fill="#97d7e7" height="6.0mm" width="42mm" x="126mm" y="262.5mm" /><rect fill="#c0c0c0" height="6.0mm" width="42mm" x="126mm" y="268.5mm" /><rect fill="#808080" height="6.0mm" width="42mm" x="126mm" y="274.5mm" /></svg>
